<svg width="16" height="14" viewBox="0 0 16 14" fill="none" xmlns="http://www.w3.org/2000/svg">
<path fill-rule="evenodd" clip-rule="evenodd" d="M1.80675 2.0266C1.54675 1.7666 1.54675 1.3466 1.80675 1.0866C2.06675 0.826602 2.49341 0.826602 2.75341 1.0866L13.6267 11.9733C13.8867 12.2333 13.8867 12.6533 13.6267 12.9133C13.3667 13.1733 12.9467 13.1733 12.6867 12.9133L10.8734 11.0999C9.98008 11.4466 9.01341 11.6466 8.00008 11.6466C4.66675 11.6466 1.82008 9.57327 0.666748 6.6466C1.18008 5.33327 2.04008 4.19993 3.12008 3.33993L1.80675 2.0266ZM11.3334 6.64662C11.3334 4.80662 9.84008 3.31329 8.00008 3.31329C7.66008 3.31329 7.33342 3.37995 7.02008 3.47329L5.57341 2.02662C6.34008 1.77995 7.15341 1.64662 8.00008 1.64662C11.3334 1.64662 14.1801 3.71995 15.3334 6.63995C14.8734 7.81329 14.1401 8.83995 13.2134 9.65995L11.1734 7.61995C11.2667 7.31329 11.3334 6.98662 11.3334 6.64662ZM8.00008 9.97992C6.16008 9.97992 4.66675 8.48658 4.66675 6.64658C4.66675 6.13325 4.78675 5.64658 4.99341 5.21992L6.04008 6.26658C6.02008 6.38658 6.00008 6.51325 6.00008 6.64658C6.00008 7.75325 6.89341 8.64658 8.00008 8.64658C8.13341 8.64658 8.25341 8.62658 8.38008 8.59992L9.42675 9.64658C8.99341 9.85992 8.51341 9.97992 8.00008 9.97992ZM9.98008 6.42661C9.88008 5.49328 9.14675 4.76661 8.22008 4.66661L9.98008 6.42661Z" fill="#9C9C9C"/>
</svg>
